<svg width="282" height="121" viewBox="0 0 282 121" fill="none" xmlns="http://www.w3.org/2000/svg">
<circle cx="244.465" cy="45.9356" r="36.8038" fill="url(#paint0_radial_669_3177)"/>
<rect x="0.285156" y="0.470703" width="8" height="8" rx="4" fill="#3B57F4"/>
<rect x="28.2852" y="0.470703" width="8" height="8" rx="4" fill="#3B57F4"/>
<rect x="56.2852" y="0.470703" width="8" height="8" rx="4" fill="#3B57F4"/>
<rect x="84.2852" y="0.470703" width="8" height="8" rx="4" fill="#3B57F4"/>
<rect x="112.285" y="0.470703" width="8" height="8" rx="4" fill="#3B57F4"/>
<rect x="0.285156" y="28.4707" width="8" height="8" rx="4" fill="#3B57F4"/>
<rect x="28.2852" y="28.4707" width="8" height="8" rx="4" fill="#3B57F4"/>
<rect x="56.2852" y="28.4707" width="8" height="8" rx="4" fill="#3B57F4"/>
<rect x="84.2852" y="28.4707" width="8" height="8" rx="4" fill="#3B57F4"/>
<rect x="112.285" y="28.4707" width="8" height="8" rx="4" fill="#3B57F4"/>
<rect x="0.285156" y="56.4707" width="8" height="8" rx="4" fill="#3B57F4"/>
<rect x="28.2852" y="56.4707" width="8" height="8" rx="4" fill="#3B57F4"/>
<rect x="56.2852" y="56.4707" width="8" height="8" rx="4" fill="#3B57F4"/>
<rect x="84.2852" y="56.4707" width="8" height="8" rx="4" fill="#3B57F4"/>
<rect x="112.285" y="56.4707" width="8" height="8" rx="4" fill="#3B57F4"/>
<rect x="0.285156" y="84.4707" width="8" height="8" rx="4" fill="#3B57F4"/>
<rect x="28.2852" y="84.4707" width="8" height="8" rx="4" fill="#3B57F4"/>
<rect x="56.2852" y="84.4707" width="8" height="8" rx="4" fill="#3B57F4"/>
<rect x="84.2852" y="84.4707" width="8" height="8" rx="4" fill="#3B57F4"/>
<rect x="112.285" y="84.4707" width="8" height="8" rx="4" fill="#3B57F4"/>
<rect x="0.285156" y="112.471" width="8" height="8" rx="4" fill="#3B57F4"/>
<rect x="28.2852" y="112.471" width="8" height="8" rx="4" fill="#3B57F4"/>
<rect x="56.2852" y="112.471" width="8" height="8" rx="4" fill="#3B57F4"/>
<rect x="84.2852" y="112.471" width="8" height="8" rx="4" fill="#3B57F4"/>
<rect x="112.285" y="112.471" width="8" height="8" rx="4" fill="#3B57F4"/>
</svg>
