<svg width="163" height="36" viewBox="0 0 163 36" fill="none" xmlns="http://www.w3.org/2000/svg">
<path d="M15.03 18.4334C15.03 19.4537 14.2028 20.2808 13.1825 20.2808C12.1622 20.2808 11.3351 19.4537 11.3351 18.4334C11.3351 17.4131 12.1622 16.5859 13.1825 16.5859C14.2028 16.5859 15.03 17.4131 15.03 18.4334Z" fill="white"/>
<path d="M20.4694 20.2808C21.4897 20.2808 22.3168 19.4537 22.3168 18.4334C22.3168 17.4131 21.4897 16.5859 20.4694 16.5859C19.4491 16.5859 18.622 17.4131 18.622 18.4334C18.622 19.4537 19.4491 20.2808 20.4694 20.2808Z" fill="white"/>
<path fill-rule="evenodd" clip-rule="evenodd" d="M10.0474 9.91687C11.131 7.22548 13.7686 5.32509 16.8508 5.32349C16.8489 5.3235 16.8471 5.32352 16.8453 5.32356C16.8515 5.32346 16.8578 5.32346 16.864 5.32356C16.8622 5.32352 16.8604 5.3235 16.8585 5.32349C19.9407 5.32509 22.5783 7.22548 23.6619 9.91687C25.0726 10.0133 26.483 10.1397 27.893 10.2961C29.6459 10.4905 30.9434 11.9923 30.9434 13.756V26.9579C30.9434 28.7417 29.6167 30.2532 27.8416 30.429C20.493 31.1567 13.2163 31.1567 5.8677 30.429C4.09255 30.2532 2.76594 28.7417 2.76594 26.9579V13.756C2.76594 11.9923 4.06337 10.4905 5.81632 10.2961C7.22631 10.1397 8.63672 10.0133 10.0474 9.91687ZM4.7587 25.5076L16.5906 5.78092C16.7102 5.58155 16.9991 5.58155 17.1187 5.78092L28.9506 25.5076C20.8022 26.9486 12.9071 26.9486 4.7587 25.5076Z" fill="white"/>
<path d="M31.714 14.2152H32.173C33.0232 14.2152 33.7125 14.9045 33.7125 15.7547V21.112C33.7125 21.9623 33.0232 22.6515 32.173 22.6515H31.714V14.2152Z" fill="white"/>
<path d="M10.0066 33.6972V34.5467H23.7027V33.6972C23.7027 32.8469 23.0134 32.1576 22.1631 32.1576H11.5461C10.6959 32.1576 10.0066 32.8469 10.0066 33.6972Z" fill="white"/>
<path d="M1.99845 14.2152H1.53952C0.689265 14.2152 0 14.9045 0 15.7547V21.112C0 21.9623 0.689265 22.6515 1.53952 22.6515H1.99845V14.2152Z" fill="white"/>
<path d="M16.856 4.5324C17.7063 4.5324 18.3956 3.84314 18.3956 2.99289C18.3956 2.14263 17.7063 1.45337 16.856 1.45337C16.0058 1.45337 15.3165 2.14263 15.3165 2.99289C15.3165 3.84314 16.0058 4.5324 16.856 4.5324Z" fill="white"/>
<path d="M15.4579 2.34717C15.6827 2.11088 16.1328 1.96026 16.5539 1.98457C17.2354 2.0239 17.8384 2.59542 17.8852 3.27982C17.9013 3.51504 17.8894 4.01878 17.8134 4.19962C18.2156 3.92416 18.3954 3.39387 18.3954 2.99289C18.3954 2.14263 17.7061 1.45337 16.8559 1.45337C16.2362 1.45337 15.702 1.81947 15.4579 2.34717Z" fill="white"/>
<path d="M44.4981 29H41.7421L49.7134 7.29087H52.4271L60.3984 29H57.6423L51.155 10.7253H50.9854L44.4981 29ZM45.5158 20.5199H56.6247V22.8519H45.5158V20.5199ZM68.5202 35.4449C67.3118 35.4449 66.273 35.2894 65.4038 34.9785C64.5346 34.6746 63.8102 34.2718 63.2307 33.7701C62.6583 33.2754 62.2025 32.7454 61.8633 32.18L63.8561 30.7808C64.0823 31.0776 64.3685 31.4168 64.7148 31.7984C65.061 32.1871 65.5345 32.5228 66.1352 32.8055C66.7429 33.0952 67.5379 33.2401 68.5202 33.2401C69.8346 33.2401 70.9194 32.9221 71.7745 32.2861C72.6295 31.65 73.0571 30.6536 73.0571 29.2968V25.9896H72.8451C72.6614 26.2864 72.3999 26.6538 72.0607 27.092C71.7285 27.523 71.248 27.9082 70.6191 28.2474C69.9972 28.5795 69.1562 28.7456 68.0962 28.7456C66.7818 28.7456 65.6016 28.4347 64.5558 27.8128C63.5169 27.1909 62.6937 26.2864 62.0859 25.0991C61.4852 23.9119 61.1849 22.4703 61.1849 20.7743C61.1849 19.1065 61.4782 17.6543 62.0647 16.4176C62.6513 15.1739 63.4675 14.2128 64.5134 13.5344C65.5592 12.8489 66.7677 12.5061 68.1386 12.5061C69.1986 12.5061 70.0396 12.6828 70.6615 13.0362C71.2904 13.3824 71.7709 13.7782 72.1031 14.2234C72.4423 14.6615 72.7038 15.0219 72.8875 15.3046H73.1419V12.7182H75.5587V29.4664C75.5587 30.8656 75.2407 32.0034 74.6047 32.8797C73.9758 33.763 73.1278 34.4096 72.0607 34.8195C71.0007 35.2364 69.8205 35.4449 68.5202 35.4449ZM68.4354 26.4984C69.4389 26.4984 70.2869 26.2687 70.9795 25.8094C71.672 25.35 72.1985 24.6893 72.5589 23.8271C72.9193 22.965 73.0995 21.9332 73.0995 20.7319C73.0995 19.5588 72.9228 18.5235 72.5695 17.626C72.2161 16.7285 71.6932 16.0254 71.0007 15.5166C70.3081 15.0078 69.453 14.7534 68.4354 14.7534C67.3754 14.7534 66.4921 15.0219 65.7854 15.559C65.0858 16.0961 64.5593 16.8169 64.206 17.7214C63.8597 18.626 63.6865 19.6295 63.6865 20.7319C63.6865 21.8626 63.8632 22.8625 64.2166 23.7317C64.577 24.5939 65.107 25.2723 65.8066 25.767C66.5133 26.2546 67.3895 26.4984 68.4354 26.4984ZM85.472 29.3392C83.9032 29.3392 82.5499 28.9929 81.4121 28.3004C80.2815 27.6008 79.4087 26.6256 78.7939 25.3747C78.1862 24.1169 77.8823 22.654 77.8823 20.9863C77.8823 19.3185 78.1862 17.8486 78.7939 16.5766C79.4087 15.2975 80.2638 14.3011 81.3591 13.5874C82.4616 12.8666 83.7477 12.5061 85.2176 12.5061C86.0656 12.5061 86.903 12.6475 87.7298 12.9302C88.5566 13.2128 89.3093 13.6722 89.9877 14.3082C90.6661 14.9371 91.2067 15.771 91.6095 16.8098C92.0123 17.8486 92.2137 19.1277 92.2137 20.6471V21.7071H79.6631V19.5447H89.6697C89.6697 18.626 89.4859 17.8062 89.1185 17.0854C88.758 16.3646 88.2422 15.7957 87.5708 15.3788C86.9066 14.9619 86.1221 14.7534 85.2176 14.7534C84.2212 14.7534 83.359 15.0007 82.6312 15.4954C81.9103 15.983 81.3556 16.619 80.9669 17.4034C80.5783 18.1878 80.3839 19.0288 80.3839 19.9263V21.3679C80.3839 22.5975 80.5959 23.6399 81.0199 24.4949C81.451 25.3429 82.0481 25.9896 82.8114 26.4348C83.5746 26.8729 84.4614 27.092 85.472 27.092C86.1292 27.092 86.7228 27.0001 87.2528 26.8164C87.7899 26.6256 88.2528 26.3429 88.6414 25.9684C89.0301 25.5867 89.3305 25.1133 89.5425 24.5479L91.9593 25.2263C91.7049 26.0461 91.2774 26.7669 90.6767 27.3888C90.076 28.0036 89.334 28.4841 88.4506 28.8304C87.5673 29.1696 86.5744 29.3392 85.472 29.3392ZM97.0283 19.2055V29H94.5267V12.7182H96.9435V15.2622H97.1555C97.5371 14.4354 98.1166 13.7711 98.8939 13.2694C99.6713 12.7606 100.675 12.5061 101.904 12.5061C103.007 12.5061 103.971 12.7323 104.798 13.1846C105.625 13.6298 106.268 14.3082 106.727 15.2198C107.187 16.1243 107.416 17.2692 107.416 18.6542V29H104.915V18.8238C104.915 17.5448 104.583 16.5483 103.918 15.8346C103.254 15.1138 102.343 14.7534 101.184 14.7534C100.385 14.7534 99.6713 14.9265 99.0423 15.2728C98.4204 15.6191 97.9293 16.1243 97.5689 16.7886C97.2085 17.4529 97.0283 18.2585 97.0283 19.2055ZM117.11 29.3392C115.583 29.3392 114.269 28.9788 113.167 28.258C112.064 27.5372 111.216 26.5443 110.622 25.2793C110.029 24.0144 109.732 22.5692 109.732 20.9439C109.732 19.2903 110.036 17.831 110.644 16.566C111.258 15.294 112.114 14.3011 113.209 13.5874C114.311 12.8666 115.597 12.5061 117.067 12.5061C118.212 12.5061 119.244 12.7182 120.163 13.1422C121.081 13.5662 121.834 14.1598 122.42 14.923C123.007 15.6862 123.371 16.5766 123.512 17.5942H121.011C120.82 16.8522 120.396 16.195 119.739 15.6226C119.088 15.0431 118.212 14.7534 117.11 14.7534C116.135 14.7534 115.279 15.0078 114.545 15.5166C113.817 16.0183 113.248 16.7285 112.838 17.6472C112.435 18.5588 112.234 19.6295 112.234 20.8591C112.234 22.117 112.432 23.2123 112.827 24.1451C113.23 25.0779 113.795 25.8023 114.523 26.3182C115.258 26.834 116.12 27.092 117.11 27.092C117.76 27.092 118.35 26.9789 118.88 26.7528C119.41 26.5266 119.859 26.2016 120.226 25.7776C120.594 25.3535 120.855 24.8447 121.011 24.2511H123.512C123.371 25.2122 123.021 26.0779 122.463 26.8482C121.912 27.6114 121.18 28.2191 120.269 28.6714C119.364 29.1166 118.311 29.3392 117.11 29.3392ZM127.288 35.1057C126.864 35.1057 126.486 35.0704 126.154 34.9997C125.822 34.9361 125.592 34.8725 125.465 34.8089L126.101 32.6041C126.709 32.7595 127.246 32.8161 127.712 32.7737C128.178 32.7313 128.592 32.5228 128.952 32.1482C129.32 31.7808 129.655 31.1836 129.959 30.3568L130.426 29.0848L124.405 12.7182H127.118L131.613 25.6927H131.783L136.277 12.7182H138.991L132.079 31.3744C131.768 32.2154 131.383 32.9115 130.924 33.4627C130.465 34.0209 129.931 34.4343 129.323 34.7029C128.723 34.9714 128.044 35.1057 127.288 35.1057ZM139.989 29H137.233L145.204 7.29087H147.918L155.889 29H153.133L146.646 10.7253H146.476L139.989 29ZM141.007 20.5199H152.116V22.8519H141.007V20.5199ZM157.614 29V12.7182H160.116V29H157.614ZM158.886 10.0045C158.398 10.0045 157.978 9.83844 157.625 9.5063C157.278 9.17417 157.105 8.77489 157.105 8.30849C157.105 7.84208 157.278 7.44281 157.625 7.11067C157.978 6.77853 158.398 6.61246 158.886 6.61246C159.374 6.61246 159.791 6.77853 160.137 7.11067C160.49 7.44281 160.667 7.84208 160.667 8.30849C160.667 8.77489 160.49 9.17417 160.137 9.5063C159.791 9.83844 159.374 10.0045 158.886 10.0045Z" fill="white"/>
</svg>
